<?xml version="1.0" encoding="utf-8"?>

    <!-- Generator: Adobe Illustrator 15.0.0, SVG Export Plug-In  -->

    <!DOCTYPE svg PUBLIC "-//W3C//DTD SVG 1.1//EN" "http://www.w3.org/Graphics/SVG/1.1/DTD/svg11.dtd" [

            <!ENTITY ns_flows "http://ns.adobe.com/Flows/1.0/">

            ]>

    <svg version="1.1"

    	 xmlns="http://www.w3.org/2000/svg" xmlns:xlink="http://www.w3.org/1999/xlink" xmlns:a="http://ns.adobe.com/AdobeSVGViewerExtensions/3.0/"

    	 x="0px" y="0px" width="552px" height="222px" viewBox="-4.092 0 552 222" enable-background="new -4.092 0 552 222"

    	 xml:space="preserve">

    <defs>

</defs>

      <title>Layer 1</title>

      <path id="svg_1" d="m195.333,129.506c-0.446,0 -0.893,0 -1.488,-0.148c-6.399,-0.744 -11.013,-6.548 -10.269,-12.947l6.994,-57.891c0.447,-3.721 -1.785,-7.293 -5.208,-8.483l-47.176,-16.816c-6.103,-2.232 -9.228,-8.78 -7.144,-14.882c2.232,-6.102 8.78,-9.227 14.882,-7.144l47.176,16.816c13.989,4.911 22.472,18.603 20.687,33.336l-6.995,57.891c-0.595,5.804 -5.655,10.268 -11.459,10.268z" fill="#FFFFFF"/>

      <path id="svg_2" d="m104.851,222.222c-5.209,0 -10.417,-1.34 -15.329,-4.019l-61.016,-33.931c-8.781,-4.911 -14.733,-13.691 -15.924,-23.663l-12.352,-100.602c-1.786,-14.733 6.995,-28.723 20.983,-33.634l75.452,-25.746c6.102,-2.083 12.799,1.19 14.882,7.292c2.084,6.103 -1.19,12.799 -7.292,14.883l-75.452,25.745c-3.572,1.191 -5.804,4.763 -5.357,8.632l12.352,100.603c0.298,2.53 1.786,4.762 4.018,6.102l61.016,33.931c2.381,1.34 5.358,1.34 7.739,0l66.076,-36.163c2.232,-1.19 3.87,-3.571 4.167,-6.102c0.744,-6.399 6.549,-11.013 12.948,-10.269c6.398,0.744 11.012,6.548 10.269,12.947c-1.191,9.971 -7.293,18.9 -16.073,23.812l-66.076,36.163c-4.614,2.679 -9.823,4.019 -15.031,4.019z" fill="#FFFFFF"/>

      <path id="svg_3" d="m157.086,131.441l-37.8,-68.309l-0.149,-0.149c-2.679,-4.613 -7.738,-7.59 -13.096,-7.59s-10.417,2.977 -13.096,7.59l-37.8,68.458c-2.828,5.208 -1.042,11.607 4.167,14.436c5.208,2.827 11.608,1.041 14.436,-4.167l7.292,-13.245l50.004,0l7.292,13.245c1.935,3.571 5.506,5.506 9.376,5.506c1.785,0 3.571,-0.446 5.06,-1.339c5.207,-2.828 7.142,-9.376 4.314,-14.436zm-64.29,-24.258l13.245,-23.96l13.245,23.96l-26.49,0z" fill="#FFFFFF"/>

      <path id="svg_13" d="m269.478265,87.956537c37.312735,-70.909537 -7.826082,35.652151 -7.826082,35.652151" opacity="0.5" stroke-width="NaN" stroke="null" fill="none"/>

      <path id="svg_14" d="m259.913054,74.043502" opacity="0.5" fill-opacity="null" stroke-opacity="null" stroke-width="NaN" stroke="null" fill="none"/>

      <text font-weight="bold" transform="matrix(7.453458579476324,0,0,7.904069590175574,-1684.6219786786453,-601.9446019712444) " xml:space="preserve" text-anchor="start" font-family="'Times New Roman', Times, serif" font-size="24" id="svg_16" y="98.272749" x="259.035244" stroke-width="0" fill="#f7f2f2">WE</text>

    </svg>
